<svg data-v-6805eed4="" version="1.0" xmlns="http://www.w3.org/2000/svg" xmlns:xlink="http://www.w3.org/1999/xlink" width="100%" height="100%" viewBox="0 0 340.000000 250.000000" preserveAspectRatio="xMidYMid meet" color-interpolation-filters="sRGB" style="margin: auto;"> <rect data-v-6805eed4="" x="0" y="0" width="100%" height="100%" fill="#fff" fill-opacity="0" class="background"></rect> <rect data-v-6805eed4="" x="0" y="0" width="100%" height="100%" fill="url(#watermark)" fill-opacity="1" class="watermarklayer"></rect> <g data-v-6805eed4="" fill="#333" class="icon-text-wrapper icon-svg-group iconsvg" transform="translate(82.56999969482422,68.23918151902035)"><g class="iconsvg-imagesvg" transform="matrix(1,0,0,1,57.43000030517578,0)" opacity="1"><g><rect fill="#333" fill-opacity="0" stroke-width="2" x="0" y="0" width="60" height="60.04563468235859" class="image-rect"></rect> <svg x="0" y="0" width="60" height="60.04563468235859" filtersec="colorsb8659915778" class="image-svg-svg primary" style="overflow: visible;"><svg xmlns="http://www.w3.org/2000/svg" viewBox="0.0186874121427536 0.03168483451008797 71.8552474975586 71.91011047363281"><title>资源 73</title><path d="M71.85 12.61c0 2.6.05 5.21 0 7.81-.09 3.42-2.1 4.7-5.32 4.78-5.32.13-7.43-.78-7.59-4.23-.26-5.67-.21-11.36 0-17 .1-2.56 1.76-4 4.53-3.93h3.55c3.35-.15 4.72 1.74 4.82 4.79.07 2.57.01 5.17.01 7.78zM71.86 41.53v4.27c0 5.63-1.08 6.68-6.6 6.67-5.29 0-6.45-1.15-6.47-6.47 0-3.43-.07-6.87 0-10.31.11-3.79 1.49-5.11 5.18-5.19 7.16-.16 7.86.53 7.87 7.83z" fill="#4c88ef"></path><path d="M13 60.69c0 1.18-.07 2.37 0 3.55.63 8.1-2.69 7.89-9.93 7.18-2.2-.21-3-2.2-3-4.24C0 62.93 0 58.67.08 54.43c.09-3.1 1.76-4.77 5-4.63h2.84c3.73.09 5 1.36 5.06 5.21.02 1.9.02 3.79.02 5.68z" fill="#e54c41"></path><path d="M19.6 44v-2.48c0-5.88 1-6.86 6.81-6.82 5.08 0 6.2 1.15 6.25 6.34v7.82c-.05 3.15-1.55 4.87-4.83 4.79h-3.2c-3.61-.14-4.85-1.37-5-5-.08-1.65-.03-3.15-.03-4.65z" fill="#f9be15"></path><path d="M52.14 62.47v2.84c0 5.46-.93 6.36-6.42 6.36s-6.35-.89-6.37-6.42c0-2.6-.05-5.21 0-7.81.08-2.83 1.5-4.4 4.44-4.37h3.2c3.88.08 5 1.2 5.11 5.13.07 1.42.04 2.8.04 4.27z" fill="#3fa95b"></path><path d="M71.85 64.66c0 6.14-.82 7-6.52 7s-6.55-1-6.54-7c0-5.86 1.05-6.93 6.73-6.92 5.33 0 6.33 1.09 6.33 6.92z" fill="#4c88ef"></path><path d="M26.23 58.71c5.35 0 6.42 1.08 6.42 6.47S31.34 72 26 71.94s-6.43-1.27-6.43-6.56c.02-5.52 1.18-6.68 6.66-6.67z" fill="#f8be18"></path><path d="M52.15 40.81c0 6.16-5.37 9.21-10.68 6.32a4 4 0 0 1-2-3.14c-.13-.93 0-1.89-.1-2.83-.56-8.43 2.93-8 9.85-7.16 3.67.47 2.78 4.29 2.93 6.81zM45.91 15.56c5.37 0 6.27.94 6.25 6.52 0 5.21-1 6.24-6.22 6.24-5.7 0-6.61-.9-6.59-6.56.01-5.34.93-6.2 6.56-6.2z" fill="#3fa95b"></path></svg></svg> <!----></g></g> <g transform="translate(0,67.04563522338867)"><g data-gra="path-name" fill-rule="" class="tp-name iconsvg-namesvg" transform="matrix(1,0,0,1,0,0)" opacity="1"><g transform="scale(1)"><g><path d="M8.94-23.43C8.15-23.43 8.02-23.43 7.66-22.8 6.27-20.33 0.2-5.15 0.2-2.18 0.2-0.59 1.91 0 3.33 0L5.08 0C5.45 0 5.74-0.2 5.84-0.53L6.93-5.08 12.67-5.08C13.04-1.91 13.4 0 17.19 0L18.88 0C19.47 0 19.77-0.17 19.77-0.79 19.77-1.88 18.88-5.54 15.35-19.77 14.88-21.65 14.29-23.43 12.08-23.43ZM10.53-18.58L11.91-9.87 8.12-9.87ZM29.9-4.06C27.75-4.06 26.8-5.12 26.8-8.25 26.8-10 27.09-14.09 29.83-14.09 31.32-14.09 31.32-12.87 31.35-10.72 31.35-10.33 31.55-10.26 32.21-10.26 34.91-10.26 36.5-11.35 36.5-13.73 36.5-16.37 34.55-18.48 30.26-18.48 22.34-18.48 21.19-11.32 21.19-7.92 21.19-1.49 25.38 0.33 28.71 0.33 31.75 0.33 33.66-1.39 34.06-1.85 34.48-2.34 35.11-4.19 35.11-4.79 35.11-5.41 34.81-5.78 34.35-5.78 33.59-5.78 32.47-4.06 29.9-4.06ZM46.66-4.06C44.52-4.06 43.56-5.12 43.56-8.25 43.56-10 43.86-14.09 46.6-14.09 48.08-14.09 48.08-12.87 48.11-10.72 48.11-10.33 48.31-10.26 48.97-10.26 51.68-10.26 53.26-11.35 53.26-13.73 53.26-16.37 51.31-18.48 47.02-18.48 39.1-18.48 37.95-11.32 37.95-7.92 37.95-1.49 42.14 0.33 45.47 0.33 48.51 0.33 50.42-1.39 50.82-1.85 51.25-2.34 51.88-4.19 51.88-4.79 51.88-5.41 51.58-5.78 51.12-5.78 50.36-5.78 49.24-4.06 46.66-4.06ZM62.5 0.33C70.78 0.33 72.37-6.6 72.37-10.76 72.37-15.64 70.16-18.48 64.61-18.48 57.06-18.48 54.71-13.23 54.71-7.92 54.71-3.33 56.46 0.33 62.5 0.33ZM64.05-14.09C66-14.09 66.76-12.74 66.76-10.56 66.76-8.51 66.1-4.06 63-4.06 61.28-4.06 60.32-5.38 60.32-8.28 60.32-10.16 60.72-14.09 64.05-14.09ZM81.15-15.35C81.15-17.09 80.49-18.15 77.75-18.15L76.69-18.15C76.06-18.15 75.83-17.92 75.77-17.13 75.6-15.61 74.94-6.6 74.94-4.88 74.94-1.98 76.89 0.33 80.26 0.33 82 0.33 84.02-0.4 85.34-2.71 85.44-1.29 86.13 0 88.77 0L90.06 0C90.68 0 90.68-0.03 90.75-0.96 91.44-10.66 91.74-13.66 91.74-15.02 91.74-17.03 91.08-18.15 88.37-18.15L87.19-18.15C86.69-18.15 86.49-17.85 86.46-17.49 86.06-13.37 86.2-4.09 82.63-4.09 81.28-4.09 80.45-5.02 80.45-6.53 80.45-7.92 81.15-13.53 81.15-15.35ZM105.9-2.9C105.9-1.06 106.52 0 109.3 0L110.35 0C111.11 0 111.24-0.07 111.24-1.02 111.24-2.15 112.13-10.36 112.13-12.51 112.13-17 110.38-18.48 106.69-18.48 104.05-18.48 102.43-17.72 101.05-15.38 100.95-16.83 100.25-18.15 97.61-18.15L96.33-18.15C96.03-18.15 95.9-18.15 95.8-18.05 95.7-17.95 95.67-17.72 95.63-17.19 94.94-7.49 94.64-4.49 94.64-3.14 94.64-1.12 95.3 0 98.01 0L99.2 0C99.76 0 99.89-0.13 99.92-0.66 100.68-11.58 101.54-14.06 104.58-14.06 106.16-14.06 106.59-13 106.59-11.85 106.59-9.67 105.9-4.82 105.9-2.9ZM123.91-13.7C125.89-13.7 126.32-14.59 126.42-15.91L126.55-17.69C126.55-18.02 126.36-18.15 126.03-18.15L122.56-18.15C122.63-19.01 122.66-19.67 122.66-20.1 122.66-21.68 122.07-23 120.22-23L119.26-23C118.67-23 117.68-19.73 117.05-18.15 115-18.15 114.74-16.96 114.67-15.84L114.58-14.16C114.58-13.86 114.61-13.7 114.94-13.7L116.69-13.7C116.23-7.46 115.93-5.51 115.93-4.16 115.93-1.16 117.41 0.33 120.58 0.33 123.78 0.33 124.97-1.19 124.97-3.6 124.97-4.85 124.64-5.08 124.34-5.08 123.75-5.08 123.39-4.22 122.4-4.22 121.8-4.22 121.54-4.52 121.54-5.64 121.54-6.9 121.87-10.4 122.17-13.7ZM132.82 0C133.39 0 133.52-0.13 133.55-0.66 134.31-10.13 134.61-13.86 134.61-15.15 134.61-17.03 133.95-18.15 131.24-18.15L129.95-18.15C129.66-18.15 129.52-18.15 129.43-18.05 129.33-17.95 129.29-17.72 129.26-17.19 128.57-7.49 128.27-4.49 128.27-3.14 128.27-1.12 128.93 0 131.64 0ZM129.29-22.04C129.29-20.63 130.22-19.93 131.97-19.93 134.28-19.93 135.53-21.15 135.53-22.77 135.53-24.06 134.71-24.88 132.82-24.88 130.68-24.88 129.29-23.79 129.29-22.04ZM148.76-2.9C148.76-1.06 149.39 0 152.16 0L153.22 0C153.98 0 154.11-0.07 154.11-1.02 154.11-2.15 155-10.36 155-12.51 155-17 153.25-18.48 149.56-18.48 146.92-18.48 145.3-17.72 143.91-15.38 143.81-16.83 143.12-18.15 140.48-18.15L139.19-18.15C138.9-18.15 138.76-18.15 138.67-18.05 138.57-17.95 138.53-17.72 138.5-17.19 137.81-7.49 137.51-4.49 137.51-3.14 137.51-1.12 138.17 0 140.88 0L142.06 0C142.63 0 142.76-0.13 142.79-0.66 143.55-11.58 144.41-14.06 147.44-14.06 149.03-14.06 149.46-13 149.46-11.85 149.46-9.67 148.76-4.82 148.76-2.9ZM168.73-3.89C168.73 0.07 167.71 2.31 164.8 2.31 161.47 2.31 162.13 0.17 160.61 0.17 159.36 0.17 157.74 0.92 157.74 2.61 157.74 4.46 160.08 6.44 164.7 6.44 170.87 6.44 172.99 3.53 173.61 0.56 174.57-3.93 175.06-13.63 175.06-14.75 175.06-17.39 174.07-18.15 171.8-18.15L170.28-18.15C170.02-18.15 169.88-18.08 169.85-17.82 169.82-17.56 169.75-15.71 169.72-15.77 169.26-17.29 168.1-18.48 165.49-18.48 159.19-18.48 157.67-12.67 157.67-8.45 157.67-3.27 160.12-0.99 163.75-0.99 166.09-0.99 167.64-1.95 168.73-3.89ZM165.96-5.38C164.17-5.38 163.48-6.47 163.48-8.65 163.48-9.97 163.75-14.09 166.98-14.09 168.6-14.09 169.42-13.07 169.42-10.43 169.42-8.78 169.09-5.38 165.96-5.38Z" transform="translate(-0.20000000298023224, 24.8799991607666)"></path></g> <!----> <!----> <!----> <!----> <!----> <!----> <!----></g></g> <g data-gra="path-slogan" fill-rule="" class="tp-slogan iconsvg-slogansvg" fill="#333" transform="matrix(1,0,0,1,60.040000915527344,38.31999969482422)" opacity="1"><!----> <!----> <g transform="scale(1, 1)"><g transform="scale(1)"><path d="M2.06-3.20L4.43-3.20L4.06-4.40Q3.84-5.06 3.65-5.72Q3.46-6.37 3.26-7.06L3.26-7.06L3.22-7.06Q3.04-6.37 2.84-5.72Q2.65-5.06 2.44-4.40L2.44-4.40L2.06-3.20ZM5.42 0L4.68-2.40L1.81-2.40L1.06 0L0.04 0L2.70-7.87L3.83-7.87L6.49 0L5.42 0ZM8.61 0L8.61-7.87L9.60-7.87L9.60 0L8.61 0ZM16.19 0L16.19-7.87L18.53-7.87Q19.13-7.87 19.63-7.76Q20.12-7.66 20.48-7.43Q20.83-7.20 21.03-6.83Q21.23-6.47 21.23-5.95L21.23-5.95Q21.23-5.36 20.89-4.89Q20.56-4.42 19.86-4.24L19.86-4.24L19.86-4.19Q20.72-4.06 21.20-3.59Q21.68-3.12 21.68-2.30L21.68-2.30Q21.68-1.73 21.47-1.30Q21.25-0.86 20.86-0.58Q20.46-0.29 19.91-0.14Q19.36 0 18.70 0L18.70 0L16.19 0ZM17.18-4.51L18.35-4.51Q19.37-4.51 19.81-4.86Q20.24-5.21 20.24-5.87L20.24-5.87Q20.24-6.52 19.78-6.80Q19.32-7.08 18.40-7.08L18.40-7.08L17.18-7.08L17.18-4.51ZM17.18-0.79L18.55-0.79Q19.57-0.79 20.14-1.17Q20.70-1.55 20.70-2.35L20.70-2.35Q20.70-3.08 20.15-3.43Q19.60-3.77 18.55-3.77L18.55-3.77L17.18-3.77L17.18-0.79ZM27.15 0.14L27.15 0.14Q26.40 0.14 25.79-0.14Q25.17-0.43 24.72-0.97Q24.28-1.50 24.03-2.26Q23.79-3.02 23.79-3.97L23.79-3.97Q23.79-4.92 24.03-5.67Q24.28-6.42 24.72-6.94Q25.17-7.46 25.79-7.74Q26.40-8.02 27.15-8.02L27.15-8.02Q27.89-8.02 28.51-7.73Q29.13-7.45 29.58-6.93Q30.03-6.41 30.27-5.66Q30.52-4.91 30.52-3.97L30.52-3.97Q30.52-3.02 30.27-2.26Q30.03-1.50 29.58-0.97Q29.13-0.43 28.51-0.14Q27.89 0.14 27.15 0.14ZM27.15-0.73L27.15-0.73Q27.68-0.73 28.10-0.96Q28.53-1.19 28.83-1.61Q29.14-2.04 29.31-2.63Q29.48-3.23 29.48-3.97L29.48-3.97Q29.48-4.70 29.31-5.29Q29.14-5.88 28.83-6.29Q28.53-6.70 28.10-6.92Q27.68-7.14 27.15-7.14L27.15-7.14Q26.62-7.14 26.19-6.92Q25.77-6.70 25.46-6.29Q25.16-5.88 24.99-5.29Q24.82-4.70 24.82-3.97L24.82-3.97Q24.82-3.23 24.99-2.63Q25.16-2.04 25.46-1.61Q25.77-1.19 26.19-0.96Q26.62-0.73 27.15-0.73ZM36.12 0.14L36.12 0.14Q35.37 0.14 34.75-0.14Q34.14-0.43 33.69-0.97Q33.25-1.50 33.00-2.26Q32.76-3.02 32.76-3.97L32.76-3.97Q32.76-4.92 33.00-5.67Q33.25-6.42 33.69-6.94Q34.14-7.46 34.75-7.74Q35.37-8.02 36.12-8.02L36.12-8.02Q36.86-8.02 37.48-7.73Q38.10-7.45 38.55-6.93Q39.00-6.41 39.24-5.66Q39.49-4.91 39.49-3.97L39.49-3.97Q39.49-3.02 39.24-2.26Q39.00-1.50 38.55-0.97Q38.10-0.43 37.48-0.14Q36.86 0.14 36.12 0.14ZM36.12-0.73L36.12-0.73Q36.64-0.73 37.07-0.96Q37.50-1.19 37.80-1.61Q38.11-2.04 38.28-2.63Q38.44-3.23 38.44-3.97L38.44-3.97Q38.44-4.70 38.28-5.29Q38.11-5.88 37.80-6.29Q37.50-6.70 37.07-6.92Q36.64-7.14 36.12-7.14L36.12-7.14Q35.59-7.14 35.16-6.92Q34.74-6.70 34.43-6.29Q34.12-5.88 33.96-5.29Q33.79-4.70 33.79-3.97L33.79-3.97Q33.79-3.23 33.96-2.63Q34.12-2.04 34.43-1.61Q34.74-1.19 35.16-0.96Q35.59-0.73 36.12-0.73ZM42.18 0L42.18-7.87L43.18-7.87L43.18-3.92L43.21-3.92L46.49-7.87L47.62-7.87L45.16-4.87L48.00 0L46.88 0L44.53-4.09L43.18-2.50L43.18 0L42.18 0ZM49.38-1.02L49.98-1.72Q50.40-1.27 50.97-1.00Q51.54-0.73 52.16-0.73L52.16-0.73Q52.94-0.73 53.37-1.09Q53.80-1.44 53.80-2.02L53.80-2.02Q53.80-2.32 53.70-2.53Q53.60-2.74 53.42-2.89Q53.25-3.04 53.01-3.16Q52.77-3.28 52.49-3.41L52.49-3.41L51.36-3.90Q51.09-4.02 50.80-4.19Q50.51-4.36 50.28-4.60Q50.06-4.84 49.91-5.17Q49.77-5.50 49.77-5.93L49.77-5.93Q49.77-6.37 49.95-6.76Q50.14-7.14 50.47-7.42Q50.80-7.70 51.25-7.86Q51.70-8.02 52.24-8.02L52.24-8.02Q52.95-8.02 53.55-7.75Q54.15-7.48 54.57-7.04L54.57-7.04L54.03-6.40Q53.67-6.74 53.23-6.94Q52.79-7.14 52.24-7.14L52.24-7.14Q51.58-7.14 51.18-6.83Q50.78-6.53 50.78-5.99L50.78-5.99Q50.78-5.70 50.89-5.50Q51.00-5.30 51.20-5.15Q51.39-5.00 51.62-4.89Q51.84-4.78 52.08-4.68L52.08-4.68L53.20-4.20Q53.54-4.06 53.84-3.87Q54.14-3.68 54.35-3.44Q54.57-3.19 54.69-2.86Q54.82-2.53 54.82-2.10L54.82-2.10Q54.82-1.63 54.63-1.22Q54.45-0.82 54.10-0.51Q53.75-0.20 53.26-0.03Q52.77 0.14 52.14 0.14L52.14 0.14Q51.32 0.14 50.61-0.17Q49.90-0.48 49.38-1.02L49.38-1.02Z" transform="translate(-0.036000000000000004, 8.016)"></path></g></g></g></g></g><defs v-gra="od"></defs></svg>